<?xml version="1.0" encoding="utf-8"?>
<!-- Generator: Adobe Illustrator 25.4.1, SVG Export Plug-In . SVG Version: 6.00 Build 0)  -->
<svg version="1.1" id="Layer_1" xmlns="http://www.w3.org/2000/svg" xmlns:xlink="http://www.w3.org/1999/xlink" x="0px" y="0px"
	 viewBox="0 0 2600 1806.2" style="enable-background:new 0 0 2600 1806.2;" xml:space="preserve">
<style type="text/css">
	.st0{opacity:0.39;}
	.st1{fill:#00BFA6;}
	.st2{opacity:0.67;}
	.st3{fill:none;stroke:#00BFA6;stroke-width:3.0759;stroke-miterlimit:10;stroke-dasharray:37.1546,37.1546;}
	.st4{opacity:0.67;fill:#D7F1E8;stroke:#00BFA6;stroke-width:3.0759;stroke-miterlimit:10;stroke-dasharray:36.9109;}
	.st5{fill:none;stroke:#00BFA6;stroke-width:3.0759;stroke-miterlimit:10;stroke-dasharray:36.7336,36.7336;}
	.st6{fill:#D7F1E8;}
	.st7{fill:#ECF8F4;}
	.st8{fill:none;stroke:#231F20;stroke-width:6.1518;stroke-miterlimit:10;}
	.st9{fill:#FFFFFF;}
	.st10{opacity:0.16;fill:#231F20;enable-background:new    ;}
</style>
<image style="display:none;overflow:visible;" width="393" height="653" xlink:href="C:\Users\kavinkumar\Downloads\MicrosoftTeams-image (3).png"  transform="matrix(2.2904 0 0 2.2904 497.4631 449.2143)">
</image>
<g>
	<g class="st0">
		<path class="st1" d="M1938.3,11.7l-21,27.7v0.4l33.4-4.4v15.1l-33.4-4V47l21.2,26.6l-13.9,8l-13.3-31.1h-0.4l-14.4,31.3l-12.6-8
			l21-27.1v-0.4l-32.7,4.2V35.4l32.5,4.2v-0.4l-20.8-27.1l13.5-7.8l13.7,30.8h0.4L1925,4.1L1938.3,11.7z"/>
	</g>
	<g class="st0">
		<path class="st1" d="M2343.5,1141.8l-21,27.7v0.4l33.4-4.4v15.1l-33.4-4v0.4l21.2,26.6l-13.9,8l-13.3-31.1h-0.4l-14.4,31.3
			l-12.6-8l21-27.1v-0.4l-32.7,4.2v-15.1l32.5,4.2v-0.4l-20.8-27.1l13.5-7.8l13.7,30.8h0.4l13.5-31.1L2343.5,1141.8z"/>
	</g>
	<g class="st0">
		<path class="st1" d="M297.4,1245.3l-21,27.7v0.4l33.4-4.4v15.1l-33.4-4v0.4l21.2,26.6l-13.9,8l-13.3-31.1h-0.4l-14.4,31.3l-12.6-8
			l21-27.1v-0.4l-32.7,4.2v-15.1l32.5,4.2v-0.4l-20.8-27.1l13.5-7.8l13.7,30.8h0.4l13.5-31.1L297.4,1245.3z"/>
	</g>
	<g class="st0">
		<path class="st1" d="M118.4,457.2l-21,27.7v0.4l33.4-4.4V496l-33.4-4v0.4l21.2,26.6l-13.9,8L91.4,496H91l-14.4,31.3l-12.6-8
			l21-27.1v-0.4L52.3,496v-15.1l32.5,4.2v-0.4L64,457.6l13.5-7.8l13.7,30.8h0.4l13.5-31.1L118.4,457.2z"/>
	</g>
	<g class="st2">
		<path class="st3" d="M1434.4,400.9H199.6c-109.4,0-198-88.7-198-198v-0.8c0-109.4,88.7-198,198-198h1234.9
			c109.4,0,198,88.7,198,198v0.8C1632.4,312.3,1543.8,400.9,1434.4,400.9z"/>
	</g>
	<path class="st4" d="M2245.5,976.8H429.3c-109.4,0-198-88.7-198-198V778c0-109.4,88.7-198,198-198h1816.3c109.4,0,198,88.7,198,198
		v0.8C2443.5,888.1,2354.9,976.8,2245.5,976.8z"/>
	<g class="st2">
		<path class="st5" d="M2402.7,1806.2H1152.1c-109.4,0-198-88.7-198-198v-0.8c0-109.4,88.7-198,198-198h1250.5
			c109.4,0,198,88.7,198,198v0.8C2600.7,1717.5,2512.1,1806.2,2402.7,1806.2z"/>
	</g>
	<g>
		<path class="st6" d="M1206.8,237.2v1367.5c-2.4,0-4.7-0.4-7-1.2c-66.5-23.1-582.4-212.9-582.4-525V494.1c0-15.6,16-25.9,30.2-19.6
			c52.7,23.3,168,58.6,294.2-2.3c127.6-61.7,212.4-173,247.2-225.4C1193.2,240.3,1199.9,237.2,1206.8,237.2z"/>
		<path class="st7" d="M1206.8,237.2v1367.5c2.4,0,4.7-0.4,7-1.2c66.5-23.1,582.4-212.9,582.4-525V494.1c0-15.6-16-25.9-30.2-19.6
			c-52.7,23.3-168,58.6-294.2-2.3c-127.6-61.7-212.4-173-247.2-225.4C1220.4,240.3,1213.6,237.2,1206.8,237.2z"/>
		<path class="st8" d="M1199.7,1603.5c4.6,1.6,9.5,1.6,14.1,0c66.5-23.2,582.4-212.9,582.4-525V494.1c0-15.6-16-25.9-30.2-19.6
			c-52.7,23.3-168,58.7-294.2-2.3c-127.6-61.7-212.5-173-247.2-225.4c-8.5-12.8-27.2-12.8-35.7,0
			c-34.8,52.4-119.6,163.7-247.2,225.4c-126.2,61-241.5,25.6-294.2,2.3c-14.2-6.3-30.2,4-30.2,19.6v584.4
			C617.3,1390.6,1133.2,1580.3,1199.7,1603.5z"/>
		<g>
			<ellipse class="st1" cx="1632.4" cy="1278.7" rx="356.4" ry="357.8"/>
			<path class="st9" d="M1601.3,1419c-0.8,0-1.5,0-2.3-0.1c-13.8-0.7-26.7-7.4-35.2-18.4l-56.2-72.5c-16.1-20.8-12.4-50.7,8.3-66.9
				l2-1.6c20.7-16.1,50.6-12.4,66.7,8.3c5.1,6.6,12.8,10.6,21.1,11c8.3,0.5,16.4-2.8,22.1-8.9l114.1-120.9
				c18.1-19.1,48.1-19.9,67.2-1.8l1.9,1.8c19,18.1,19.8,48.3,1.8,67.4l-177,187.5C1626.8,1413.6,1614.4,1419,1601.3,1419z"/>
			<path class="st10" d="M1632.4,1587c-187.1,0-342.3-145.3-355.5-332.6c-0.6,8.3-1,16.7-1,25.2c0.1,197.6,159.7,357.7,356.6,357.6
				c196.7-0.1,356.2-160.2,356.3-357.6c0-8.5-0.4-16.9-1-25.2C1974.7,1441.7,1819.5,1586.9,1632.4,1587z"/>
		</g>
	</g>
</g>
</svg>
